<?xml version="1.0" standalone="no"?><!DOCTYPE svg PUBLIC "-//W3C//DTD SVG 1.1//EN" "http://www.w3.org/Graphics/SVG/1.1/DTD/svg11.dtd"><svg t="1727968072531" class="icon" viewBox="0 0 1024 1024" version="1.1" xmlns="http://www.w3.org/2000/svg" p-id="4284" width="32" height="32" xmlns:xlink="http://www.w3.org/1999/xlink"><path d="M512 400c-62.4 0-112 49.6-112 112s49.6 112 112 112 112-49.6 112-112-49.6-112-112-112z m0 160c-27.2 0-48-20.8-48-48s20.8-48 48-48 48 20.8 48 48-20.8 48-48 48z" fill="#e6e6e6" p-id="4285"></path><path d="M928 480h-65.6C848 312 712 176 544 161.6V96c0-17.6-14.4-32-32-32s-32 14.4-32 32v65.6C312 176 176 312 161.6 480H96c-17.6 0-32 14.4-32 32s14.4 32 32 32h65.6C176 712 312 848 480 862.4V928c0 17.6 14.4 32 32 32s32-14.4 32-32v-65.6c168-16 304-150.4 318.4-318.4H928c17.6 0 32-14.4 32-32s-14.4-32-32-32zM544 798.4V736c0-17.6-14.4-32-32-32s-32 14.4-32 32v62.4C347.2 784 240 676.8 225.6 544H288c17.6 0 32-14.4 32-32s-14.4-32-32-32h-62.4c14.4-132.8 121.6-240 254.4-254.4V288c0 17.6 14.4 32 32 32s32-14.4 32-32v-62.4c132.8 14.4 240 121.6 254.4 254.4H736c-17.6 0-32 14.4-32 32s14.4 32 32 32h62.4C784 676.8 676.8 784 544 798.4z" fill="#e6e6e6" p-id="4286"></path></svg>