<?xml version="1.0" standalone="no"?><!DOCTYPE svg PUBLIC "-//W3C//DTD SVG 1.1//EN" "http://www.w3.org/Graphics/SVG/1.1/DTD/svg11.dtd"><svg t="1728224522233" class="icon" viewBox="0 0 1024 1024" version="1.1" xmlns="http://www.w3.org/2000/svg" p-id="188980" width="256" height="256" xmlns:xlink="http://www.w3.org/1999/xlink"><path d="M700 351.36l-376 0c-25.728 0-46.544-20.816-46.544-46.544 0-25.712 20.816-46.544 46.544-46.544l376 0c25.728 0 46.544 20.832 46.544 46.544C746.56 330.544 725.744 351.36 700 351.36z" fill="#54fc5f" p-id="188981"></path><path d="M700 626.096l-376 0c-25.728 0-46.544-20.832-46.544-46.544 0-25.728 20.816-46.544 46.544-46.544l376 0c25.728 0 46.544 20.816 46.544 46.544C746.56 605.264 725.744 626.096 700 626.096z" fill="#54fc5f" p-id="188982"></path><path d="M736.464 488.736 287.552 488.736c-25.728 0-46.544-20.832-46.544-46.544 0-25.728 20.816-46.544 46.544-46.544l448.912 0c25.728 0 46.544 20.816 46.544 46.544C783.008 467.904 762.192 488.736 736.464 488.736z" fill="#54fc5f" p-id="188983"></path><path d="M792.32 1024c-8.272 0-16.496-2.192-23.856-6.592l-222.96-133.04-103.312 0C198.368 884.352 0 686 0 442.192 0 198.352 198.368 0 442.192 0l139.632 0C825.648 0 1024 198.352 1024 442.192c0 143.712-68.736 276.224-185.136 359.312l0 175.952c0 16.736-9.008 32.24-23.552 40.448C808.192 1022 800.24 1024 792.32 1024zM442.192 93.088c-192.496 0-349.088 156.592-349.088 349.088s156.592 349.072 349.088 349.072l116.128 0c8.416 0 16.64 2.288 23.872 6.592l163.584 97.6 0-118.72c0-16 8.192-30.88 21.728-39.376 102.32-64.544 163.408-174.864 163.408-295.168 0-192.496-156.592-349.088-349.088-349.088L442.192 93.088z" fill="#54fc5f" p-id="188984"></path></svg>