<?xml version="1.0" standalone="no"?><!DOCTYPE svg PUBLIC "-//W3C//DTD SVG 1.1//EN" "http://www.w3.org/Graphics/SVG/1.1/DTD/svg11.dtd"><svg t="1728275455654" class="icon" viewBox="0 0 1024 1024" version="1.1" xmlns="http://www.w3.org/2000/svg" p-id="7884" width="256" height="256" xmlns:xlink="http://www.w3.org/1999/xlink"><path d="M895.445333 576c-29.525333 138.282667-170.282667 243.626667-340.778666 247.338667 40.746667 34.901333 97.322667 56.490667 159.914666 56.490666 16.256 0 31.914667-0.725333 47.402667-4.010666l61.397333 39.850666c1.706667 0.896 4.096 1.664 6.485334 1.664 6.528 0 12.330667-4.778667 12.330666-12.757333v-58.965333c58.026667-35.157333 96.469333-92.586667 96.469334-157.226667-0.085333-41.984-16.085333-80.810667-43.221334-112.384z m-200.106666-211.925333c0 16.554667-13.696 29.994667-30.592 29.994666H303.061333c-16.853333 0-30.592-13.44-30.592-29.994666s13.738667-29.994667 30.592-29.994667h361.685334c16.896-0.085333 30.592 13.354667 30.592 29.994667z m0 176c0 16.554667-13.696 30.037333-30.592 30.037333H303.061333c-16.853333 0-30.592-13.482667-30.592-30.037333 0-16.512 13.738667-29.994667 30.592-29.994667h361.685334c16.896 0 30.592 13.482667 30.592 29.994667z m174.634666-34.005334c4.224-19.626667 6.4-39.936 6.4-60.586666C877.738667 257.706667 700.586667 106.666667 481.706667 106.666667 262.528 106.666667 85.333333 257.706667 85.333333 444.202667c0 114.304 67.712 216.106667 169.856 278.229333v104.32c0 14.208 10.197333 22.528 21.674667 22.528 4.266667 0 8.576-1.28 11.52-2.901333l108.16-70.485334c27.264 5.802667 54.826667 7.125333 83.456 7.125334l10.282667-0.085334c189.994667-4.138667 346.709333-122.069333 379.690666-276.864z" fill="#54fc5f" p-id="7885"></path></svg>