<?xml version="1.0" standalone="no"?><!DOCTYPE svg PUBLIC "-//W3C//DTD SVG 1.1//EN" "http://www.w3.org/Graphics/SVG/1.1/DTD/svg11.dtd"><svg t="1728398378938" class="icon" viewBox="0 0 1024 1024" version="1.1" xmlns="http://www.w3.org/2000/svg" p-id="7963" xmlns:xlink="http://www.w3.org/1999/xlink" width="256" height="256"><path d="M773.41 196.21c15.05-15.01 39.41-14.98 54.42 0.07 14.07 14.11 15.05 36.63 2.24 51.9l-2.25 2.44-577.2 577.2c-15.05 15.01-39.41 14.98-54.42-0.07-14.07-14.11-15.05-36.63-2.24-51.9l2.25-2.44 577.2-577.2z" p-id="7964" fill="#e6e6e6"></path><path d="M196.21 196.21c14.12-14.12 36.68-15.09 51.97-2.25l2.44 2.25 577.2 577.2c15.01 15.05 14.98 39.41-0.07 54.42-14.11 14.07-36.63 15.05-51.9 2.24l-2.44-2.25-577.2-577.2c-15.03-15.03-15.03-39.39 0-54.41z" p-id="7965" fill="#e6e6e6"></path></svg>