<?xml version="1.0" standalone="no"?><!DOCTYPE svg PUBLIC "-//W3C//DTD SVG 1.1//EN" "http://www.w3.org/Graphics/SVG/1.1/DTD/svg11.dtd"><svg t="1728224084039" class="icon" viewBox="0 0 1030 1024" version="1.1" xmlns="http://www.w3.org/2000/svg" p-id="172215" width="257.5" height="256" xmlns:xlink="http://www.w3.org/1999/xlink"><path d="M789.305379 810.674222m-63.997734 0a63.997733 63.997733 0 1 0 127.995467 0 63.997733 63.997733 0 1 0-127.995467 0Z" fill="#54fc5f" p-id="172216"></path><path d="M910.261095 597.348444h-241.911432l-119.974418 213.325778 119.974418 213.325778h241.911432l119.974417-213.325778-119.974417-213.325778z m-49.918232 85.330311l71.976117 127.995467-72.018782 127.995467H718.267895L646.249112 810.674222l71.976118-127.995467h142.117633z" fill="#54fc5f" p-id="172217"></path><path d="M440.901718 100.000725A341.150584 341.150584 0 0 1 773.348611 12.409161c39.763925 10.964945 51.070191 66.130991 23.465835 93.735346l-84.391678 84.391678a85.330311 85.330311 0 0 0 0 120.699725 85.330311 85.330311 0 0 0 110.502753 8.874353l5.546471-4.565172 4.607836-4.309181 85.244981-85.202315c26.751053-26.708387 81.063796-17.620709 92.327397 22.185881 22.612532 79.783841 15.444786 165.540804-20.436609 240.503482a42.665156 42.665156 0 0 1-76.967941-36.82003c17.919365-37.460007 26.281736-78.589217 24.83112-119.547766l-0.298656-5.162483-45.225065 45.225065-6.399773 5.973121a170.660622 170.660622 0 0 1-240.503482-241.356785l6.399773-6.826425 44.457092-44.457092L686.397023 85.366577c-64.424385-1.066629-127.995467 22.185881-177.10306 67.28295l-8.063715 7.679728a255.862938 255.862938 0 0 0-66.685638 245.751296l2.943896 10.452963 8.575696 28.073673-316.746115 246.732595-5.674466 5.333144c-42.195839 42.153174-35.070758 130.384716 14.378157 179.833631 1.834602 1.834602 3.711869 3.583873 5.674466 5.290479 52.819463 46.249029 140.197701 47.870305 178.681672 3.925195l69.330878-82.855733a42.665156 42.665156 0 1 1 65.448348 54.78206l-69.970855 83.538375C314.783518 1024 173.647183 1021.440091 87.548899 946.050761a202.318168 202.318168 0 0 1-9.812985-9.215674c-80.807805-80.76514-92.284732-222.669447-14.420823-300.533356l8.106379-7.594398 3.626539-3.157221 273.398317-213.027122-1.493281-7.253077a341.107919 341.107919 0 0 1 85.159651-296.09618l8.831687-9.173008z" fill="#54fc5f" p-id="172218"></path><path d="M300.704017 724.746599m-42.665156 0a42.665156 42.665156 0 1 0 85.330311 0 42.665156 42.665156 0 1 0-85.330311 0Z" fill="#54fc5f" p-id="172219"></path></svg>