<?xml version="1.0" standalone="no"?><!DOCTYPE svg PUBLIC "-//W3C//DTD SVG 1.1//EN" "http://www.w3.org/Graphics/SVG/1.1/DTD/svg11.dtd"><svg t="1728224223711" class="icon" viewBox="0 0 1024 1024" version="1.1" xmlns="http://www.w3.org/2000/svg" p-id="180132" width="256" height="256" xmlns:xlink="http://www.w3.org/1999/xlink"><path d="M215.00606 987.286618a32.031515 32.031515 0 1 1-45.633939-44.902626l67.353939-68.52404a32.031515 32.031515 0 0 1 45.70707 44.902626l-67.353939 68.52404z m-160.303838 6.143031a32.031515 32.031515 0 0 1-45.341414-45.195152l154.160808-154.087676a32.031515 32.031515 0 1 1 45.341413 45.268283L54.702222 993.429649z m0.146263-143.337374a32.031515 32.031515 0 0 1-45.63394-44.902626L99.019798 713.921771a32.031515 32.031515 0 1 1 45.70707 44.829495L54.848485 849.946013z m776.654542-165.276767c14.553131 145.165656-36.858182 251.425454-153.283232 312.270706-69.694141 36.419394-129.954343 33.42101-184.290908 5.704243a241.991514 241.991514 0 0 1-25.815353-15.211313c-28.082424-9.507071-32.909091-34.298586-25.449697-60.040808 3.510303-12.066667 9.360808-24.49899 19.452929-43.147475l2.925252-5.338586 1.682021-3.144646a710.324442 710.324442 0 0 0-20.257374 3.290909c-57.92 10.01899-69.474747 10.969697-91.34101-0.365657-77.080404-40.222222-183.559595-146.48202-197.162019-179.537373-8.995151-21.573737-12.139798-46.80404-11.189091-76.202828a506.068685 506.068685 0 0 1 5.411717-56.530504l2.047677-13.602425c-4.46101 2.705859-9.287677 6.069899-15.503839 10.604041l-15.576969 11.481616a176.246464 176.246464 0 0 1-16.308283 10.750303c-22.378182 12.79798-45.195151 15.284444-60.552727-10.092121C7.020606 510.909246 5.119192 473.539146 25.742222 386.659146c31.665858-134.122828 139.24202-195.991918 311.39313-185.022222C431.69414 113.148036 531.664644 54.642986 636.900604 26.853087c107.50303-28.521212 221.441615-34.152323 341.376968-17.112727 14.114343 1.68202 25.449697 12.432323 27.789899 26.473535 50.826262 263.930908-7.386263 481.350301-174.637575 648.601613z m-178.221009-596.020199c-97.995959 25.888485-191.969696 81.90707-282.067474 168.860201l-10.530909 10.092121-14.48-1.243232c-151.820605-12.944242-233.800807 31.812121-258.153534 134.854141-14.187475 60.18707-15.869495 84.978586 0.950707 119.350302l11.920404-8.848888c6.581818-4.899798 13.38303-9.507071 20.330505-13.89495 33.42101-20.476768 63.624242-25.669091 88.927676-0.438788 12.139798 12.139798 12.578586 21.354343 10.311515 42.928081-0.438788 4.534141-1.09697 9.507071-2.193939 16.600808l-2.632727 18.502222c-2.559596 16.381414-4.168485 32.909091-4.899798 49.509899-0.585051 21.061818 1.462626 37.955151 6.362424 49.729293 7.532525 18.136566 103.115151 113.572929 167.6901 147.286464 2.559596 1.316364 14.333737 0.365657 50.68-5.996768a407.341413 407.341413 0 0 1 57.627474-6.947475c5.923636-0.219394 11.70101-0.219394 17.405253 0 19.160404 0.804444 33.932929 14.626263 35.834343 33.640404a55.067879 55.067879 0 0 1-4.753535 26.692929c-3.87596 9.945859-5.850505 13.602424-20.403636 40.222222l-2.77899 5.119192a310.734948 310.734948 0 0 0-10.969697 21.939394c6.728081 3.949091 13.163636 7.82505 15.650101 8.995152 36.78505 18.867879 75.325252 20.769293 125.420201-5.411718 95.509495-49.948687 134.342222-135.292929 117.595151-263.272726l-2.193939-16.088889 11.70101-11.18909c154.965252-148.456565 212.080807-340.499393 171.492929-579.565655-103.407676-12.139798-201.330504-5.996768-293.841615 18.502222z m35.468686 423.430301a176.100201 176.100201 0 1 1 176.173333-175.953939 176.100201 176.100201 0 0 1-176.246464 176.02707z m0-63.989899a112.110303 112.110303 0 0 0 97.118384-167.982625 112.110303 112.110303 0 0 0-209.228686 56.018585c0 61.795959 50.168081 111.96404 112.110302 111.96404z" fill="#54fc5f" p-id="180133"></path></svg>