<?xml version="1.0" standalone="no"?><!DOCTYPE svg PUBLIC "-//W3C//DTD SVG 1.1//EN" "http://www.w3.org/Graphics/SVG/1.1/DTD/svg11.dtd"><svg t="1728225239348" class="icon" viewBox="0 0 1024 1024" version="1.1" xmlns="http://www.w3.org/2000/svg" p-id="235522" width="256" height="256" xmlns:xlink="http://www.w3.org/1999/xlink"><path d="M974.592 345.408a33.408 33.408 0 0 0-2.752-6.528 110.72 110.72 0 0 1-6.016-14.208l-0.512-0.512c-3.84-9.344-7.68-18.56-13.696-28.416-15.296-27.84-61.696-74.24-140.864-75.392-40.96 0.576-97.792 12.032-133.76 66.624a32.64 32.64 0 0 0-4.992 8.192L508.8 639.808 349.248 295.68a47.232 47.232 0 0 0-63.36-22.976 47.744 47.744 0 0 0-23.488 63.36l167.104 359.936 0.576 0.512c21.824 40.448 49.152 61.184 82.496 61.184 31.616-1.088 57.856-22.4 76.416-63.36l168.192-354.432c0-0.576 0.576-0.576 0.576-1.088 4.352-7.104 15.296-23.488 52.992-23.488h0.512c38.784 0.576 55.68 22.4 57.92 25.664a11.904 11.904 0 0 0 2.688 4.352c1.664 2.176 3.84 7.68 6.016 13.12 2.176 5.44 4.928 12.032 8.192 18.56 14.72 45.376 22.4 90.112 22.4 133.248 0 107.584-37.696 198.848-114.112 279.04-81.408 78.144-173.12 115.84-280.704 115.84-110.912 0-202.624-37.696-279.68-115.2C154.88 713.984 117.12 622.272 117.12 511.36c0-110.848 37.76-202.56 115.84-280.704 58.944-62.208 136.512-100.48 223.872-110.848 42.048-3.264 59.008-3.264 107.072 0 5.44 0.576 55.68 7.68 97.216 22.912 11.968 4.416 25.088 3.84 36.544-1.6a45.568 45.568 0 0 0 24.576-26.752l0.576-2.176v-0.576a47.36 47.36 0 0 0-28.928-59.008C642.496 34.112 580.288 24.32 569.92 24.32c-52.992-3.84-74.88-3.84-122.88 0-110.336 13.632-208.128 61.696-282.368 139.776C68.032 260.224 21.568 373.824 21.568 511.424c0 137.6 46.976 251.264 143.104 347.392 95.04 94.976 211.84 143.04 347.328 143.04 131.648 0 248.512-48 348.416-143.616 94.528-98.816 142.528-215.168 142.528-346.816a543.808 543.808 0 0 0-28.352-166.016z" p-id="235523" fill="#54fc5f"></path></svg>