<?xml version="1.0" standalone="no"?><!DOCTYPE svg PUBLIC "-//W3C//DTD SVG 1.1//EN" "http://www.w3.org/Graphics/SVG/1.1/DTD/svg11.dtd"><svg t="1728225075782" class="icon" viewBox="0 0 1024 1024" version="1.1" xmlns="http://www.w3.org/2000/svg" p-id="222226" width="256" height="256" xmlns:xlink="http://www.w3.org/1999/xlink"><path d="M90.368 397.056l334.72 148.224a217.408 217.408 0 0 0 175.936 0l334.72-148.224a79.04 79.04 0 0 0 0-145.408L600.96 103.424a217.792 217.792 0 0 0-176 0L90.432 251.584a78.976 78.976 0 0 0-0.064 145.472zM466.56 197.12a116.288 116.288 0 0 1 92.992 0l287.424 127.232-287.424 127.36a116.928 116.928 0 0 1-93.056 0L179.008 324.352 466.56 197.12z" fill="#54fc5f" p-id="222227"></path><path d="M911.36 488.064l-338.496 154.048c-38.4 17.472-82.688 17.92-121.664 1.216L113.664 498.368a51.264 51.264 0 0 0-40.384 94.08l337.472 144.96a253.056 253.056 0 0 0 204.544-2.112l338.432-153.984a51.2 51.2 0 0 0-42.368-93.248z" fill="#54fc5f" p-id="222228"></path><path d="M911.36 677.44l-338.496 153.984c-37.76 17.216-83.2 17.728-121.664 1.28l-337.536-144.96a51.2 51.2 0 1 0-40.384 94.08l337.536 144.96a253.76 253.76 0 0 0 204.48-2.176l338.432-153.92a51.2 51.2 0 0 0-42.368-93.248z" fill="#54fc5f" p-id="222229"></path></svg>