<?xml version="1.0" standalone="no"?><!DOCTYPE svg PUBLIC "-//W3C//DTD SVG 1.1//EN" "http://www.w3.org/Graphics/SVG/1.1/DTD/svg11.dtd"><svg t="1728225003120" class="icon" viewBox="0 0 1024 1024" version="1.1" xmlns="http://www.w3.org/2000/svg" p-id="217631" width="256" height="256" xmlns:xlink="http://www.w3.org/1999/xlink"><path d="M512.5 1016.5c-140.1 0-260.9-49.8-359.1-147.9C53.8 769 5.5 651.6 5.5 509.5c0-142.1 48.4-259.6 147.9-359.1C230 69.8 331.2 19.8 445.6 6.6c49.7-4.2 72.3-4.3 128.2-0.2h0.1c7.6 0 73 9.6 127.6 29.6 20.2 7.4 30.6 29.8 23.2 50-7.4 20.3-29.9 30.7-50 23.2-45.4-16.7-99.4-24.4-106-25-52.5-3.8-70.8-3.7-115.3-0.1-94.7 11-179.5 52.7-244 120.6-85 85-125.9 184.4-125.9 304.8s40.9 219.8 125.1 303.9 183.6 125.1 303.9 125.1c116.7 0 216.3-41.1 304.5-125.6 83.4-87.1 124.5-186.7 124.5-303.4 0-46.8-8.2-95.7-24.5-145.1-3.2-6.7-5.9-13.3-8.4-19.7-2.6-6.6-5.1-12.9-7.4-16.3-0.9-1.4-1.7-2.8-2.5-4.3 0 0-19.8-32.3-70.9-33h-0.6c-45.9 0-60.1 21.8-65.5 30-0.3 0.4-0.6 0.9-1 1.4l-178 375.3c-18 39-41.9 59.4-70.9 60.3-29.1 0.1-55.3-18.8-76.7-58.5L258.7 319.2c-9.1-19.5-0.6-42.7 19-51.8 19.7-9.1 42.8-0.5 51.8 19L505 664.7c1.4 2.6 2.7 4.8 3.9 6.7 1.2-2.2 2.3-4.4 3.3-6.6L691.8 286c1.2-2.5 2.7-5 4.4-7.2 36.2-54.9 93.7-65.5 132.4-65.8 78.9 1 124.4 47.4 138.8 73.9 6.1 9.6 10 19.5 13.8 29 2.1 5.2 4.2 10.7 6.9 16.1 0.8 1.7 1.6 3.4 2.1 5.1 19.5 58.3 29.3 116.3 29.3 172.3 0 135.8-49.6 256.4-147.4 358.5-103.2 99-223.8 148.6-359.6 148.6z" fill="#54fc5f" p-id="217632"></path></svg>