<?xml version="1.0" standalone="no"?><!DOCTYPE svg PUBLIC "-//W3C//DTD SVG 1.1//EN" "http://www.w3.org/Graphics/SVG/1.1/DTD/svg11.dtd"><svg t="1728223790890" class="icon" viewBox="0 0 1024 1024" version="1.1" xmlns="http://www.w3.org/2000/svg" p-id="158371" xmlns:xlink="http://www.w3.org/1999/xlink" width="256" height="256"><path d="M746.589013 326.101333l98.346667-98.133333-99.882667-100.096-98.346666 98.304 99.882666 99.882667z m-61.952 61.952l-99.925333-99.797333-439.808 439.466667a216.96 216.96 0 0 0-46.421333 86.613333l-15.445334 75.52 75.349334-15.445333a215.082667 215.082667 0 0 0 86.442666-46.506667l439.765334-439.466667z m8.192-315.136a73.557333 73.557333 0 0 1 104.533334 0l102.656 102.4a73.941333 73.941333 0 0 1 0 104.533334L298.50368 881.322667a287.914667 287.914667 0 0 1-124.842667 67.114666l-112.896 23.125334a50.602667 50.602667 0 0 1-59.733333-59.733334l23.168-112.725333a289.450667 289.450667 0 0 1 67.114667-124.885333L692.786347 72.917333z m163.413334 720.597334a145.066667 145.066667 0 0 1-61.397334 92.074666 177.92 177.92 0 0 0 162.517334-69.418666 37.418667 37.418667 0 0 1 52.266666-6.485334 36.821333 36.821333 0 0 1 6.570667 51.882667c-68.266667 87.04-167.637333 116.309333-291.584 88.064a210.602667 210.602667 0 0 1-45.098667-15.616 1177.6 1177.6 0 0 1-283.818666 38.826667 36.992 36.992 0 1 1 0-73.941334 1044.992 1044.992 0 0 0 218.026666-25.6 131.669333 131.669333 0 0 1-11.050666-92.842666 139.946667 139.946667 0 0 1 150.016-113.664 110.933333 110.933333 0 0 1 103.594666 126.72z m-180.992 3.242666a56.448 56.448 0 0 0 16.298666 57.429334c107.178667-32.256 117.12-104.618667 50.389334-114.261334a66.944 66.944 0 0 0-66.645334 56.832z" fill="#54fc5f" p-id="158372"></path></svg>